<!-- Exported by Character Map UWP -->
<svg height="100%" viewBox="0 0 896 1024" width="100%" xmlns="http://www.w3.org/2000/svg" xmlns:xlink="http://www.w3.org/1999/xlink">
  <path d="M896,392L896,898.5C896,915.167 892.583,931.083 885.75,946.25C878.917,961.417 869.75,974.75 858.25,986.25C846.75,997.75 833.417,1006.92 818.25,1013.75C803.083,1020.58 787.167,1024 770.5,1024L517,1024C528.667,1014.67 539.833,1004.67 550.5,994C561.167,983.333 571,972 580,960L768,960C777,960 785.333,958.333 793,955C800.667,951.667 807.417,947.083 813.25,941.25C819.083,935.417 823.667,928.667 827,921C830.333,913.333 832,905 832,896L832,388C832,386.667 831.833,385.333 831.5,384L637.5,384C620.167,384 603.917,380.5 588.75,373.5C573.583,366.5 560.333,357.167 549,345.5C537.667,333.833 528.667,320.25 522,304.75C515.333,289.25 512,273 512,256L512,64.5C510.667,64.1667 509.333,64.0001 508,64L256,64C247,64.0001 238.667,65.6667 231,69C223.333,72.3334 216.583,76.9167 210.75,82.75C204.917,88.5834 200.333,95.3334 197,103C193.667,110.667 192,119 192,128L192,380.5C169.667,386.5 148.333,394.5 128,404.5L128,125.5C128,108.833 131.417,92.9167 138.25,77.75C145.083,62.5834 154.25,49.2501 165.75,37.75C177.25,26.2501 190.583,17.0834 205.75,10.25C220.917,3.41669 236.833,0 253.5,0L504,0C521,0 537.333,3.25 553,9.75C568.667,16.25 582.5,25.5 594.5,37.5L858.5,301.5C870.5,313.5 879.75,327.333 886.25,343C892.75,358.667 896,375 896,392ZM576,256C576,265 577.667,273.417 581,281.25C584.333,289.083 588.833,295.833 594.5,301.5C600.167,307.167 606.917,311.667 614.75,315C622.583,318.333 631,320 640,320L787,320L576,109ZM576,736C576,775.667 568.417,813 553.25,848C538.083,883 517.5,913.5 491.5,939.5C465.5,965.5 435,986.083 400,1001.25C365,1016.42 327.667,1024 288,1024C248,1024 210.5,1016.5 175.5,1001.5C140.5,986.5 110,966 84,940C58,914 37.5,883.5 22.5,848.5C7.5,813.5 0,776 0,736C0,696.333 7.58333,659 22.75,624C37.9167,589 58.5,558.5 84.5,532.5C110.5,506.5 141,485.917 176,470.75C211,455.583 248.333,448 288,448C314.333,448 339.75,451.417 364.25,458.25C388.75,465.083 411.667,474.75 433,487.25C454.333,499.75 473.833,514.833 491.5,532.5C509.167,550.167 524.25,569.667 536.75,591C549.25,612.333 558.917,635.25 565.75,659.75C572.583,684.25 576,709.667 576,736ZM448,608C448,599.333 444.833,591.833 438.5,585.5C432.167,579.167 424.667,576 416,576L224,576C215.333,576 207.833,579.167 201.5,585.5C195.167,591.833 192,599.333 192,608C192,616.667 195.167,624.167 201.5,630.5C207.833,636.833 215.333,640 224,640L335,640L167.5,807.5C160.833,814.167 157.5,822.333 157.5,832C157.5,841.667 160.833,849.833 167.5,856.5C174.167,863.167 182.333,866.5 192,866.5C201.667,866.5 209.833,863.167 216.5,856.5L384,689L384,800C384,808.667 387.167,816.167 393.5,822.5C399.833,828.833 407.333,832 416,832C424.667,832 432.167,828.833 438.5,822.5C444.833,816.167 448,808.667 448,800Z" fill="#000000" fill-opacity="1">
  </path>
</svg>